<?xml version="1.0" encoding="UTF-8" standalone="no"?>
<!-- Created with Inkscape (http://www.inkscape.org/) -->

<svg
   xmlns:dc="http://purl.org/dc/elements/1.1/"
   xmlns:cc="http://creativecommons.org/ns#"
   xmlns:rdf="http://www.w3.org/1999/02/22-rdf-syntax-ns#"
   xmlns:svg="http://www.w3.org/2000/svg"
   xmlns="http://www.w3.org/2000/svg"
   xmlns:sodipodi="http://sodipodi.sourceforge.net/DTD/sodipodi-0.dtd"
   xmlns:inkscape="http://www.inkscape.org/namespaces/inkscape"
   width="120.68554mm"
   height="158.31882mm"
   viewBox="0 0 427.62593 560.97218"
   id="svg2"
   version="1.1"
   inkscape:version="0.91 r13725"
   sodipodi:docname="logo.svg"
   inkscape:export-filename="~/mealplanner/media/logo.png"
   inkscape:export-xdpi="300"
   inkscape:export-ydpi="300">
  <defs
     id="defs4" />
  <sodipodi:namedview
     id="base"
     pagecolor="#ffffff"
     bordercolor="#666666"
     borderopacity="1.0"
     inkscape:pageopacity="0.0"
     inkscape:pageshadow="2"
     inkscape:zoom="0.7"
     inkscape:cx="430.16806"
     inkscape:cy="337.39276"
     inkscape:document-units="px"
     inkscape:current-layer="g8249"
     showgrid="false"
     fit-margin-top="0"
     fit-margin-left="0"
     fit-margin-right="0"
     fit-margin-bottom="0"
     inkscape:window-width="1920"
     inkscape:window-height="1056"
     inkscape:window-x="1920"
     inkscape:window-y="24"
     inkscape:window-maximized="1" />
  <metadata
     id="metadata7">
    <rdf:RDF>
      <cc:Work
         rdf:about="">
        <dc:format>image/svg+xml</dc:format>
        <dc:type
           rdf:resource="http://purl.org/dc/dcmitype/StillImage" />
        <dc:title></dc:title>
      </cc:Work>
    </rdf:RDF>
  </metadata>
  <g
     inkscape:label="Layer 1"
     inkscape:groupmode="layer"
     id="layer1"
     transform="translate(-135.5722,-134.38778)">
    <g
       id="g8249">
      <path
         style="fill:#ffffff;fill-rule:evenodd;stroke:#000000;stroke-width:10;stroke-linejoin:round;stroke-dasharray:none"
         sodipodi:nodetypes="cccccc"
         id="path588"
         d="m 142.4827,140.23568 c -11.6412,149.0651 35.262,212.6871 -1.6959,451.9421 0,0 333.2339,3.392 332.3859,3.392 43.456,-250 -25.204,-331.333 2.657,-396.8275 -53.798,-0.7344 -67.099,-59.3545 -67.099,-59.3545 l -266.248,0.8479 z"
         inkscape:connector-curvature="0" />
      <path
         style="fill:#eeebff;fill-rule:evenodd;stroke:#000000;stroke-width:10;stroke-linejoin:round;stroke-dasharray:none"
         sodipodi:nodetypes="cccc"
         id="path589"
         d="m 408.7312,140.23565 -0.849,59.3546 68.681,0 c 3.392,-5.0876 -64.441,-57.6587 -67.832,-59.3546 z"
         inkscape:connector-curvature="0" />
    </g>
    <g
       id="g8353"
       transform="translate(462.31816,526.48862)">
      <title
         id="title8355">Layer 1</title>
      <g
         id="g8399"
         transform="matrix(1.8022153,0,0,1.8022153,-202.42904,-375.77878)">
        <path
           style="fill:#431732;fill-rule:evenodd;stroke:#000000;stroke-width:3.47000003;stroke-linejoin:bevel;stroke-miterlimit:2.41420007"
           inkscape:connector-curvature="0"
           stroke-miterlimit="2.4142"
           d="M 62.570313,70.204697 C 47.164135,96.283837 41.060586,126.51261 28.459397,153.8185 16.625548,175.85214 2.499587,198.23862 2.425793,224.26399 c -2.305506,30.28734 16.228888,62.07744 45.534958,71.00832 24.69997,7.25278 53.747429,8.36786 76.171079,-6.21115 16.10029,-11.91208 25.19131,-31.29193 30.89846,-50.17244 6.74808,-29.2399 9.82088,-59.44962 9.45875,-89.45214 C 163.46751,126.51472 163.1663,103.4071 158.67351,80.833863 147.46178,68.479432 131.15929,63.399171 116.86067,55.830682 107.26579,55.3071 96.601204,50.483731 87.902138,56.902482 79.458214,61.336549 71.014252,65.770623 62.570313,70.204698 Z"
           id="path20" />
        <path
           style="fill:#9785af"
           inkscape:connector-curvature="0"
           d="m 65.18972,68.829193 -2.620201,1.375 C 47.163376,96.283295 41.047142,126.5237 28.445951,153.82869 16.612093,175.86269 2.503196,198.2417 2.429392,224.26669 1.466873,236.9117 2.192683,247.8087 7.76217,259.20468 7.896007,207.74069 21.628575,186.99669 28.433324,172.1467 c 3.744608,-8.17201 -2.049955,-0.73801 5.058905,-0.862 8.608891,-0.151 16.85873,-8.07501 15.918488,-14.04401 -2.718548,-17.253 -0.159206,-25.007 2.203735,-36.238 2.577686,-12.251 13.31673,-39.936299 22.391308,-50.392194 4.213837,-6.279106 -3.774109,0.426895 -8.81604,-1.781303 l 0,0 z"
           id="path4037" />
        <path
           style="fill:#30061d"
           inkscape:connector-curvature="0"
           d="m 151.2848,74.141693 c -5.75123,1.728203 -11.41284,6.039398 -14.64202,9.96875 6.64003,57.583997 7.89114,123.465137 -30.02385,170.906247 -24.260364,29.60993 -56.253422,33.98618 -75.337061,32 5.044405,3.57926 10.624773,6.40577 16.676493,8.25 24.69997,7.25278 53.745698,8.36026 76.169348,-6.21875 16.10029,-11.91205 25.21061,-31.27572 30.91778,-50.15625 6.74807,-29.2399 9.79467,-59.46621 9.43255,-89.46875 -1.02153,-22.92186 -1.30237,-46.02052 -5.79516,-68.593747 -2.27094,-2.502403 -4.76838,-4.700851 -7.39807,-6.6875 z"
           id="path3955" />
        <path
           style="fill:none;stroke:#000000;stroke-width:3.47000098;stroke-linejoin:bevel;stroke-miterlimit:2.41420007"
           inkscape:connector-curvature="0"
           stroke-miterlimit="2.4142"
           d="M 63.063511,70.204697 C 47.657375,96.283791 41.553761,126.5127 28.95257,153.81869 c -11.833855,22.03301 -25.959771,44.42 -26.033568,70.445 -2.305509,30.28801 16.228854,62.07801 45.534993,71.00901 24.699898,7.25199 53.747295,8.36698 76.171355,-6.212 16.10019,-11.91202 25.19093,-31.29102 30.89832,-50.17201 6.74801,-29.23999 9.82068,-59.45 9.45866,-89.452 -1.02191,-22.922 -1.32275,-46.03 -5.81587,-68.602797 -11.21152,-12.3545 -27.51393,-17.434708 -41.81293,-25.003204 -9.59479,-0.523598 -20.259078,-5.347 -28.958121,1.0718 -8.443962,4.434105 -16.887932,8.868103 -25.331898,13.302208 l 0,0 z"
           id="path20-9" />
        <path
           style="fill:#87ad46;fill-rule:evenodd;stroke:#000000;stroke-width:3.47000003;stroke-linejoin:bevel;stroke-miterlimit:2.41420007"
           inkscape:connector-curvature="0"
           stroke-miterlimit="2.4142"
           d="m 144.92073,1.87669 c -12.914,7.88243 -15.02837,29.173479 -31.3197,31.663708 -15.656678,1.817574 -32.189103,5.105743 -43.719155,16.962181 -7.569324,3.344261 -23.101116,23.680763 -7.455894,23.618332 7.342247,-4.128998 19.67382,-7.125496 17.92588,5.851601 5.727623,17.102089 20.886839,-3.706184 29.263699,-2.076866 4.12932,9.688576 8.61956,31.061244 23.36683,20.162102 2.55052,-5.910507 11.61281,-18.419884 14.22124,-5.552704 2.77386,12.144916 23.16763,15.724706 18.73277,-0.959961 -0.91847,-19.03344 -8.69145,-37.482853 -21.42239,-51.416412 -6.0486,-13.87068 24.90614,-26.52492 5.38278,-37.78392 l -2.36255,-0.60975 -2.61351,0.14169 z"
           id="path27" />
        <path
           sodipodi:nodetypes="cccccccccccccccscccs"
           style="fill:#4b7021"
           inkscape:connector-curvature="0"
           d="m 150.19827,0.64169 c -1.47897,1.76146 -1.90446,4.56696 0.30365,6.46875 0.90871,1.98386 4.1693,5.50006 6.34613,5.3125 1.37531,-4.0049 0.44385,-7.88521 -5.89067,-11.59375 z m -0.63763,11.46875 c -2.48993,12.55232 -13.68279,21.44279 -14.81775,34.437499 -0.6693,4.680481 2.06392,8.72197 3.30971,13.03125 3.1197,8.842426 0.81682,20.375813 3.55261,29.343754 2.13989,-5.140007 6.26296,-0.147392 6.7105,2.09375 2.73237,12.144917 22.79962,15.715917 18.43107,-0.96875 -0.90471,-19.033447 -8.56259,-37.472683 -21.10313,-51.406254 -3.22811,-7.515091 4.24841,-14.665001 8.71452,-21.4375 -0.0459,-0.947729 -0.28746,-1.875149 -0.81982,-2.781249 -0.95636,-1.28851 -2.50046,-1.91857 -3.97771,-2.3125 z m -47.30748,51.875003 c -0.32365,0.01866 -0.70171,0.06868 -1.12347,0.15625 -4.081899,3.168266 -9.320302,5.312813 -12.540426,9.46875 4.359695,1.079338 9.934731,-3.039963 15.030296,-6 0.85883,-2.001701 1.09686,-3.767014 -1.3664,-3.625 z"
           id="path3906" />
        <path
           style="fill:#ffffff;stroke:#000000;stroke-width:3.47000003;stroke-linejoin:bevel;stroke-miterlimit:2.41420007"
           inkscape:connector-curvature="0"
           stroke-miterlimit="2.4142"
           d="m 146.33229,5.15869 c 1.11887,4.01465 3.73363,7.997631 7.83012,9.309"
           id="path29" />
        <path
           style="fill:none;stroke:#000000;stroke-width:3.47000003;stroke-linejoin:bevel;stroke-miterlimit:2.41420007"
           inkscape:connector-curvature="0"
           stroke-miterlimit="2.4142"
           d="m 143.15407,11.48369 c -8.29849,8.616749 -9.62259,23.247789 -21.36563,28.524"
           id="path31" />
        <path
           style="fill:#ffffff;stroke:#000000;stroke-width:3.47000003;stroke-linejoin:bevel;stroke-miterlimit:2.41420007"
           inkscape:connector-curvature="0"
           stroke-miterlimit="2.4142"
           d="m 140.21161,27.53669 c -0.78093,4.89922 -3.0304,10.857948 0.88383,15.038998"
           id="path33" />
        <path
           style="fill:#b9d67c"
           inkscape:connector-curvature="0"
           d="m 147.27751,1.76669 -2.34273,0.125 c -12.91398,7.88243 -15.02717,29.16603 -31.3185,31.656249 -15.656685,1.81757 -32.211052,5.112301 -43.741119,16.96875 -7.114021,3.143089 -21.237881,21.254383 -9.925755,23.375004 0.363625,-0.229736 0.718674,-0.459862 1.048061,-0.71875 3.268921,-2.210854 12.341492,0.886688 12.851128,-2.803932 10.78241,-10.45676 17.507149,-20.874073 28.112995,-24.939022 7.26163,-2.022141 13.32782,-5.077641 20.1933,-8.25705 11.24008,-7.619089 13.13425,-22.963029 23.36559,-31.562499 0.7285,-1.2 1.44865,-2.4616 1.75703,-3.84375 z M 99.256821,51.168659 c -4.818329,5.551231 -8.701202,12.779301 -19.027077,20.536457 1.479805,1.42189 0.647743,4.407043 0.12603,8.280327 1.040352,3.1064 2.380096,4.93972 3.945641,5.90625 -0.267723,-0.797394 -0.526161,-1.585152 -0.80146,-2.40625 0.77948,-6.029266 11.216278,-26.190685 15.756866,-32.316784 z m 14.205329,12.44178 c -2.5624,2.997883 -3.70576,8.564716 -3.72986,14.593754 3.07808,7.378479 6.4254,20.96106 14.08717,22.687497 -1.41937,-7.133847 -2.49128,-18.907513 -6.41167,-15.281247 l -3.94564,-22.000004 z"
           id="path3822" />
        <path
           style="fill:none;stroke:#000000;stroke-width:3.47000098;stroke-linejoin:bevel;stroke-miterlimit:2.41420007"
           inkscape:connector-curvature="0"
           stroke-miterlimit="2.4142"
           d="m 144.92073,1.87669 c -12.91408,7.88243 -15.02795,29.1735 -31.3195,31.6637 -15.656878,1.8176 -32.189311,5.105698 -43.719355,16.9622 -7.569317,3.344299 -23.101128,23.680706 -7.455879,23.618305 7.342247,-4.129005 19.673843,-7.125504 17.925835,5.851601 5.727684,17.102097 20.886729,-3.7062 29.263319,-2.076805 4.13011,9.688499 8.62024,31.061009 23.36707,20.162102 2.55085,-5.910599 11.613,-18.419899 14.22106,-5.552803 2.7738,12.14471 23.16781,15.7247 18.73292,-0.9599 C 165.01785,72.511597 157.24493,54.062191 144.51433,40.128689 138.46568,26.25799 169.4202,13.60379 149.89717,2.34474 l -2.36244,-0.60975 -2.614,0.14169 0,1e-5 z"
           id="path27-6" />
      </g>
    </g>
  </g>
</svg>
